<svg width="21" height="21" fill="none" xmlns="http://www.w3.org/2000/svg">
  <mask id="a" style="mask-type:alpha" maskUnits="userSpaceOnUse" x="0" y="0" width="21" height="21">
    <path fill="#D9D9D9" d="M.5.331h20v20H.5z"/>
  </mask>
  <g mask="url(#a)">
    <path d="M10.5 18.33a6.77 6.77 0 0 1-2.732-.554 7.11 7.11 0 0 1-2.217-1.497 7.113 7.113 0 0 1-1.497-2.217 6.772 6.772 0 0 1-.554-2.731c0-.973.185-1.883.554-2.732.37-.85.869-1.588 1.497-2.217a7.113 7.113 0 0 1 2.217-1.497A6.772 6.772 0 0 1 10.5 4.33c.972 0 1.883.185 2.732.555.849.37 1.588.868 2.216 1.497a7.11 7.11 0 0 1 1.498 2.217c.37.849.554 1.76.554 2.732 0 .972-.185 1.882-.554 2.731a7.111 7.111 0 0 1-1.498 2.217 7.111 7.111 0 0 1-2.216 1.497c-.85.37-1.76.555-2.732.555Zm2.083-4.166 1.063-1.063-2.396-2.396V7.33h-1.5v4l2.833 2.834ZM5.437 2.726 6.5 3.79 2.958 7.33 1.896 6.268l3.541-3.542Zm10.125 0 3.542 3.542-1.062 1.062L14.5 3.79l1.063-1.063Zm-5.067 14.105c1.531 0 2.831-.534 3.9-1.6C15.466 14.165 16 12.866 16 11.335c0-1.53-.533-2.83-1.6-3.9-1.066-1.07-2.365-1.605-3.895-1.605-1.531 0-2.831.534-3.9 1.6C5.534 8.496 5 9.795 5 11.326c0 1.53.533 2.83 1.6 3.9 1.066 1.07 2.365 1.604 3.895 1.604Z" fill="#1C1B1F"/>
  </g>
</svg>
