<svg width="46" height="46" fill="none" xmlns="http://www.w3.org/2000/svg">
  <g clip-path="url(#a)">
    <path d="M12.43 5.3c.94-1.47 1.34-2.85 1.34-2.85s-1.23.41-2.74 1.6c-1.39 1.26-2.99 3.43-2.88 6.27a16.08 16.08 0 0 0 4.28-5.02ZM4.53 21.7l-.08 1.16c-.02.25.15.47.4.48.24.02.45-.18.47-.42l.08-1.16A10.3 10.3 0 0 0 9 18l.94-1.83.32-.8s-1.1.11-2.47 1a7.23 7.23 0 0 0-2.73 4.17h-.01c.01-2.19-.25-3.93-.8-5.3-.5-1.64-1.23-2.65-1.23-2.65l-.3 1.04a8.4 8.4 0 0 0-.3 2.57c0 1.89.48 4.1 2.1 5.52Z" fill="#ECCCA1" fill-opacity=".64"/>
    <path d="M5.59 15.7c-.09.24.05.5.29.57.22.07.46-.08.54-.3l.37-1.07c1.85-.55 3.06-1.77 4.1-2.77.55-.57.94-1.14 1.2-1.55.28-.41.47-.65.47-.65s-1.15-.2-2.46.42a6.78 6.78 0 0 0-3.38 3.25H6.7c.45-2 .47-3.67.28-5.04A16.4 16.4 0 0 0 6.3 5.8c-.15-.15-2.92 5.34-.36 8.86l-.35 1.03ZM8.14 36.06c.32.46.92 1.3.96 1.26.18.19.47.2.64.04a.45.45 0 0 0 .01-.62c-.04.03-.64-.81-.95-1.24 1.57-4.85.6-8.73.77-8.99 0 0-1.24.68-1.92 2.23a6.57 6.57 0 0 0 .4 6.38l-.03.02-.04.04a42.24 42.24 0 0 0-4.69-5.36C1.63 28.37.5 27.62.5 27.62c-.09-.04.24 2.18 1.58 4.54 1.23 2.15 3.55 4 6.06 3.9Z" fill="#ECCCA1" fill-opacity=".64"/>
    <path d="m13.6 41.18 2.81 1.76c.22.14.5.03.6-.18.1-.24 0-.49-.21-.62l-2.78-1.74a19.27 19.27 0 0 0-1.47-6.4c-.57-1.7-1.26-2.8-1.22-2.84 0 0-.95 1.09-1.07 2.97-.28 1.76.5 4.33 3.05 6.26-.02.02-.04.03-.05.06-2.67-1.7-5.03-2.64-6.88-3.47-2.13-.78-3.6-1.1-3.6-1.1s.2.55.8 1.3c.59.73 1.39 1.75 2.5 2.6 2.12 1.62 5.08 2.59 7.51 1.4ZM5.02 29.3l.43 1.56c.07.24.3.39.53.3a.5.5 0 0 0 .3-.6l-.42-1.5a14.65 14.65 0 0 0 3.03-5.32c.7-1.73.7-3.13.79-3.15 0 0-1.27.33-2.5 1.64a7.1 7.1 0 0 0-1.85 6.2c-.03-.01-.06-.02-.1-.01-.74-2.83-1.63-5-2.53-6.61C1.64 20 .63 18.97.63 18.97s-.12.5-.1 1.31c0 .82.05 1.96.25 3.17.56 2.31 1.78 4.95 4.24 5.85ZM34.1 5.3c-.94-1.47-1.34-2.85-1.34-2.85s1.23.41 2.74 1.6c1.39 1.26 2.99 3.43 2.88 6.27A16.08 16.08 0 0 1 34.1 5.3ZM42 21.7l.08 1.16c.02.25-.15.47-.4.48a.45.45 0 0 1-.47-.42l-.08-1.16a10.3 10.3 0 0 1-3.6-3.77l-.94-1.83-.32-.8s1.11.11 2.47 1a7.23 7.23 0 0 1 2.73 4.17h.01c-.01-2.19.25-3.93.8-5.3a9.94 9.94 0 0 1 1.23-2.65l.3 1.04c.16.64.37 1.53.3 2.57 0 1.89-.48 4.1-2.1 5.52Z" fill="#ECCCA1" fill-opacity=".64"/>
    <path d="M40.94 15.7c.09.24-.05.5-.29.57-.22.07-.45-.08-.54-.3l-.37-1.07c-1.85-.55-3.06-1.77-4.1-2.77a9.55 9.55 0 0 1-1.2-1.55c-.28-.41-.47-.65-.47-.65s1.15-.2 2.46.42a6.78 6.78 0 0 1 3.38 3.25h.03c-.46-2-.47-3.67-.29-5.04.29-1.7.68-2.75.68-2.75.15-.15 2.92 5.34.36 8.86l.35 1.03ZM38.4 36.06c-.33.46-.93 1.3-.97 1.26-.18.19-.47.2-.64.04a.45.45 0 0 1-.01-.62c.05.03.64-.81.95-1.24-1.56-4.85-.6-8.73-.77-8.99 0 0 1.24.68 1.92 2.23a6.57 6.57 0 0 1-.4 6.38l.03.02.04.04a42.24 42.24 0 0 1 4.69-5.36c1.66-1.45 2.79-2.2 2.79-2.2.1-.04-.24 2.18-1.58 4.54-1.23 2.15-3.55 4-6.06 3.9Z" fill="#ECCCA1" fill-opacity=".64"/>
    <path d="m32.94 41.18-2.82 1.76c-.22.14-.5.03-.6-.18-.1-.24.01-.49.21-.62l2.78-1.74c.13-2.68.85-4.86 1.47-6.4.58-1.7 1.26-2.8 1.22-2.84 0 0 .95 1.09 1.08 2.97.27 1.76-.5 4.33-3.06 6.26.02.02.04.03.05.06 2.67-1.7 5.03-2.64 6.88-3.47 2.13-.78 3.6-1.1 3.6-1.1s-.2.55-.8 1.3c-.59.73-1.39 1.75-2.5 2.6-2.12 1.62-5.07 2.59-7.51 1.4ZM41.5 29.3l-.42 1.56c-.07.24-.3.39-.53.3a.5.5 0 0 1-.3-.6l.42-1.5a14.65 14.65 0 0 1-3.03-5.32c-.7-1.73-.7-3.13-.78-3.15 0 0 1.26.33 2.48 1.64a7.1 7.1 0 0 1 1.86 6.2c.03-.01.06-.02.1-.01.74-2.83 1.63-5 2.53-6.61 1.06-1.8 2.07-2.84 2.07-2.84s.12.5.1 1.31c0 .82-.05 1.96-.24 3.17-.57 2.31-1.8 4.95-4.25 5.85Z" fill="#ECCCA1" fill-opacity=".64"/>
    <path d="M12.66 18.84a19.13 19.13 0 0 1-3.34.82L9.1 18.3a10.9 10.9 0 0 0 2.5-.89 9.84 9.84 0 0 0 2.15-1.36h.03l1.46.24v13.53l2.97.22v1.17H9.57v-1.17l3.1-.22V18.84Zm8.32 14.93c.44.05.92.07 1.44.07 1.13 0 2.17-.23 3.12-.7a5.57 5.57 0 0 0 2.23-1.92 4.9 4.9 0 0 0 .81-2.78c0-2.58-1.19-3.86-3.57-3.86-.53 0-1.12.08-1.78.24-.64.14-1.2.32-1.68.52l-.65-.45 1.18-8.64h6.84l.24-.46h1.49l-.43 2.47h-6.36l-1.1 5.6a8.1 8.1 0 0 1 1.65-.6 7.93 7.93 0 0 1 2.01-.27c1.54 0 2.75.43 3.63 1.3.88.86 1.32 2.12 1.32 3.77 0 1.26-.37 2.43-1.1 3.5a7.53 7.53 0 0 1-3.08 2.57 10.32 10.32 0 0 1-6.21.8v-1.16Zm19.07-11-.07-2.03V18.1h1.85v2.64l-.12 2.04 1.82-.12h2.78v1.82h-2.78l-1.82-.07.12 2v2.8h-1.85v-2.8l.07-2-2.09.07H35.5v-1.82h2.47l2.09.12Z" fill="#3F4850"/>
  </g>
  <defs>
    <clipPath id="a">
      <path fill="#fff" d="M0 0h46v46H0z"/>
    </clipPath>
  </defs>
</svg>
