<svg width="21" height="21" fill="none" xmlns="http://www.w3.org/2000/svg">
  <mask id="a" style="mask-type:alpha" maskUnits="userSpaceOnUse" x="0" y="0" width="21" height="21">
    <path fill="#D9D9D9" d="M.5.33h20v20H.5z"/>
  </mask>
  <g mask="url(#a)">
    <path d="M10.5 10.33c.42 0 .77-.15 1.06-.44.3-.3.44-.65.44-1.06 0-.42-.15-.77-.44-1.06-.3-.3-.65-.44-1.06-.44-.42 0-.77.15-1.06.44-.3.3-.44.65-.44 1.06 0 .42.15.77.44 1.06.3.3.65.44 1.06.44Zm0 6.02a23.14 23.14 0 0 0 3.74-4.1 6.22 6.22 0 0 0 1.26-3.36 4.93 4.93 0 0 0-5-5.06 4.93 4.93 0 0 0-5 5.06c0 .99.42 2.1 1.26 3.36a23.14 23.14 0 0 0 3.74 4.1Zm0 1.98a26.73 26.73 0 0 1-4.89-5.07C4.54 11.69 4 10.24 4 8.89a6.4 6.4 0 0 1 6.49-6.56A6.39 6.39 0 0 1 17 8.9c0 1.35-.53 2.8-1.6 4.36a26.71 26.71 0 0 1-4.9 5.08Z" fill="#1C1B1F"/>
  </g>
</svg>
