<svg width="200" height="57" fill="none" xmlns="http://www.w3.org/2000/svg">
  <path d="m49.7021 30.5933-.712-.0994v-.414h1.1724c.1967 0 .4456-.011.7466-.0331.278-.0221.4835-.0331.6165-.0331.7988 0 1.3691.1187 1.7107.356.3473.2374.5209.5852.5209 1.0434 0 .3919-.1187.7287-.356 1.0102-.2373.2816-.5615.4582-.9725.53.556-.011.9928.1132 1.3114.3727.3182.2594.4774.6127.4774 1.0599 0 .5575-.2082 1.013-.6252 1.3663-.4109.3533-1.0943.5299-2.0492.5299a6.967 6.967 0 0 1-.5993-.0248c-.4516-.0166-.7208-.0249-.8076-.0249h-1.1549v-.4057l.7208-.0828v-5.1506Zm.9203 2.2027c.0812.0055.2461.0082.495.0082h.4779c.4049 0 .712-.1076.9202-.3229.2083-.2153.3127-.5217.3127-.9191 0-.3865-.1044-.668-.3127-.8447-.2082-.1822-.5642-.2732-1.068-.2732a6.436 6.436 0 0 0-.6427.0331l-.1824.0165v2.3021Zm0 2.9727c.1334.0442.4345.0663.9032.0663.5846 0 1.0075-.1132 1.2679-.3395.2664-.2319.3994-.5631.3994-.9937 0-.4251-.1159-.7342-.3472-.9274-.2258-.1933-.5934-.2899-1.1031-.2899-.5902 0-.9637.0056-1.1202.0166v2.4676Zm5.8925-5.1754-.712-.0994v-.414h4.4198l.1219 1.2835h-.495l-.2521-.8032-2.1536-.0497v2.3352l1.4504-.0249.1214-.6873h.4779v1.9046h-.4779l-.1214-.7121-1.4504-.0249v2.4676l2.4491-.0828.46-1.0434.5125.1491-.2517 1.4408h-4.8197v-.4057l.7208-.0828v-5.1506Zm7.9226-.5631h.9554l2.1101 5.7137.5384.0828v.4057h-2.2925v-.4057l.7208-.0828-.4082-1.2255H63.526l-.4082 1.2255.7467.0828v.4057h-2.058v-.4057l.5384-.0828 2.0926-5.7137Zm.5472 1.3249-.2171-.7287-.2082.7453-.8773 2.6581h2.2145l-.9119-2.6747Zm7.1238 4.9436c-.851 0-1.479-.2153-1.8844-.6459-.3994-.4361-.5989-1.1096-.5989-2.0205v-3.039l-.6165-.0994v-.414h2.3185v.414l-.7383.1077v3.1218c0 .7508.1389 1.2918.4169 1.623.2835.3312.6889.4969 1.2158.4969.5268 0 .9203-.1767 1.1807-.53.2664-.3533.3998-.8667.3998-1.5402v-3.1715l-.7295-.1077v-.414h2.0233v.414l-.6339.0994v3.1384c0 .8612-.2143 1.5043-.6428 1.9294-.4285.425-.9987.6376-1.7107.6376Zm6.5061-5.7799-1.4933.0497-.3042 1.7306h-.5731l.1478-2.2192h5.4098l.1043 2.2192h-.5471l-.2867-1.7306-1.5021-.0497v5.2251l1.2329.0828v.4057h-3.3172v-.4057l1.1289-.0828v-5.2251Zm6.7332 3.3205-1.9537-3.2377-.5209-.1077v-.414h2.2663v.414l-.6861.0994 1.2245 2.2192.278.6294.3126-.6294 1.1548-2.2192-.712-.0994v-.414h1.9799v.414l-.5646.0994-1.8147 3.2378v1.9045l.9724.0911v.4057h-2.8831v-.4057l.9466-.0828v-1.9046Zm9.5338 2.4842c-.3014 0-.5706-.0248-.8076-.0745-.2377-.0497-.4982-.1159-.7817-.1987-.1736-.0608-.3038-.0939-.3907-.0994l.0693-1.4988h.556l.1477 1.0765c.098.0883.2573.1684.4775.2401.2258.0663.4715.0994.7383.0994.4396 0 .7725-.0938.9983-.2816.2314-.1876.3473-.4471.3473-.7783 0-.2153-.0638-.4003-.1908-.5548-.1218-.1546-.2867-.2871-.495-.3975-.2031-.1104-.4834-.2401-.8422-.3892-.3246-.138-.6081-.2788-.851-.4223-.2378-.1435-.446-.334-.6252-.5714-.174-.2429-.2609-.5327-.2609-.8694 0-.3037.0841-.5742.2521-.8115.1736-.243.4193-.4334.7379-.5714.3242-.138.7005-.207 1.129-.207.266 0 .5005.0193.7032.0579.2087.0387.4429.0911.7037.1574.1155.0386.2138.0634.2951.0745l-.0522 1.3912h-.5296l-.1736-1.0186c-.0582-.0552-.1796-.1076-.3648-.1573-.1796-.0497-.3767-.0745-.5906-.0745-.3994 0-.7032.08-.9115.2401-.2031.1601-.3043.392-.3043.6956 0 .2208.061.4057.1824.5548.1271.149.2836.276.4691.3809.1852.1049.4803.2484.8857.4306.3763.1711.6829.3257.9207.4637.2369.138.4396.3202.6077.5465.1736.2209.2604.4858.2604.795 0 .2925-.0868.5741-.2604.8446-.1681.2705-.4285.4941-.7817.6707-.3473.1712-.7698.2567-1.2676.2567Zm6.7884 0c-.637 0-1.181-.1297-1.633-.3892-.4456-.2649-.7841-.6348-1.0159-1.1096-.2317-.4747-.3472-1.0323-.3472-1.6727 0-.6182.1362-1.1648.4082-1.6395.2719-.4748.6451-.8419 1.1199-1.1013.475-.265 1.007-.3975 1.598-.3975.446 0 .981.0662 1.606.1987l.287.0497-.087 1.4905h-.582l-.217-1.0516c-.081-.0663-.223-.1215-.425-.1657-.197-.0496-.44-.0745-.73-.0745-.37 0-.7.1021-.989.3064-.29.1987-.519.4941-.6865.8861-.1621.3919-.2433.8611-.2433 1.4076 0 .519.0724.991.217 1.4161.1448.425.3648.7645.6598 1.0185.296.2484.66.3726 1.094.3726.307 0 .542-.0248.704-.0745.168-.0497.31-.1215.425-.2153l.365-.8115.547.0662-.208 1.1759c-.122.0055-.301.0441-.539.1159-.208.0607-.41.1076-.608.1408-.191.0386-.431.0579-.72.0579Zm4.396-5.7302-.686-.0994v-.414h2.362v.414l-.746.0994v2.2275h3.056v-2.2275l-.703-.0994v-.414h2.327v.414l-.686.0994v5.1506l.686.0828v.4057h-2.336v-.4057l.712-.0828v-2.4097h-3.056v2.4097l.755.0828v.4057h-2.388v-.4057l.703-.0828v-5.1506Zm9.953 5.7302c-.59 0-1.091-.1297-1.502-.3892-.406-.2594-.712-.6237-.921-1.093-.208-.4747-.312-1.024-.312-1.6479 0-.6348.124-1.1924.373-1.6727.255-.4802.602-.8501 1.042-1.1095.44-.265.935-.3975 1.485-.3975.903 0 1.592.2732 2.067.8197.48.5411.721 1.2918.721 2.2524 0 .6459-.131 1.2145-.391 1.7058-.255.4858-.608.864-1.06 1.1345-.446.2649-.946.3974-1.502.3974Zm.113-5.8792c-.562 0-1.005.2346-1.329.7038-.324.4637-.486 1.1455-.486 2.0453 0 .8281.156 1.485.469 1.9709.318.4802.761.7203 1.328.7203.556 0 .996-.2401 1.321-.7203.33-.4803.495-1.1704.495-2.0702 0-.8336-.157-1.4823-.47-1.946-.312-.4692-.755-.7038-1.328-.7038Zm7.022 5.8792c-.59 0-1.091-.1297-1.502-.3892-.405-.2594-.712-.6237-.921-1.093-.208-.4747-.312-1.024-.312-1.6479 0-.6348.124-1.1924.373-1.6727.255-.4802.602-.8501 1.042-1.1095.44-.265.935-.3975 1.485-.3975.903 0 1.592.2732 2.067.8197.48.5411.721 1.2918.721 2.2524 0 .6459-.131 1.2145-.391 1.7058-.255.4858-.608.864-1.059 1.1345-.446.2649-.947.3974-1.503.3974Zm.113-5.8792c-.562 0-1.004.2346-1.329.7038-.324.4637-.486 1.1455-.486 2.0453 0 .8281.157 1.485.469 1.9709.318.4802.761.7203 1.329.7203.556 0 .995-.2401 1.32-.7203.33-.4803.494-1.1704.494-2.0702 0-.8336-.156-1.4823-.468-1.946-.313-.4692-.756-.7038-1.329-.7038Zm5.129.149-.703-.0994v-.414h2.492v.414l-.86.0994v5.1506l2.241-.0745.512-1.3912.53.0745-.304 1.8797h-4.628v-.4057l.72-.0828v-5.1506ZM49.9048 12.4733l-1.3217-.215v-1.0254h3.7979l4.9853 7.4428.937 1.8855v-8.0879l-1.4387-.215v-1.0254h4.149v1.0254l-1.2882.215v11.0485h-2.0246l-5.2028-7.8233-1.1711-2.1832v8.8487l1.6896.1654v.9924h-4.4334v-.9924l1.3217-.1654v-9.8907Zm18.8837 11.1808c-1.6952 0-2.9556-.419-3.7811-1.257-.8251-.838-1.2381-2.1557-1.2381-3.953v-5.9708l-1.1038-.215v-1.0254h5.0522v1.0254l-1.422.2316v6.1692c0 2.6243.9425 3.9364 2.8273 3.9364.9259 0 1.6116-.3362 2.058-1.0089.4461-.6836.6691-1.6374.6691-2.8613v-6.2354l-1.4388-.2316v-1.0254h4.1825v1.0254l-1.1377.215v6.1197c0 1.7201-.4237 2.9936-1.2715 3.8206-.8363.827-1.9684 1.2405-3.3961 1.2405Zm8.97-11.1808-1.3384-.215v-1.0254h8.9173l.2175 2.7786h-1.1712l-.5523-1.6374-3.6135-.1489v4.4492l2.3256-.0496.2676-1.3563h1.0708v4.0026h-1.0708l-.2676-1.4224-2.3256-.0496v4.6641l4.0487-.1985.9701-2.117 1.2548.3473-.4349 3.0268h-9.6198v-.9924l1.3217-.1654v-9.8907Zm9.6915-1.2404h5.0857v1.0254l-1.422.215 2.4928 7.4097.4851 1.6705.4181-1.687 2.3423-7.3932-1.3217-.215v-1.0254h4.0488v1.0254l-1.0709.215-3.848 11.1642h-1.9907l-4.216-11.1642-1.0035-.215v-1.0254Zm17.358-.0662h2.559l3.865 11.1973.97.1654v.9924h-4.935v-.9924l1.255-.1654-.653-2.1502h-4.333l-.652 2.1667 1.355.1489v.9924h-4.2665l-.0167-.9924 1.0042-.1654 3.848-11.1973Zm1.154 2.7952-.301-1.2901-.318 1.3066-1.489 5.0777h3.68l-1.572-5.0942Zm14.194-1.4886-1.422-.215v-1.0254h5.354v1.0254l-1.472.215v9.8907l1.472.1819v.9759h-5.354v-.9924l1.422-.1654v-9.8907Zm8.368 0-1.807-.215v-1.0254h5.22l1.991 7.112.468 1.9351.402-1.9351 1.974-7.112h5.17v1.0254l-1.824.215 1.338 9.8741 1.355.182v.9924h-5.336v-.9924l1.472-.1654-.736-7.2443-.318-3.0268-.619 2.5471-2.426 8.369h-1.774l-2.475-7.939-.854-2.9771-.251 3.0268-.636 7.2443 1.69.1654v.9924h-4.651v-.9924l1.406-.1654 1.221-9.8907Zm19.902-1.3066h2.56l3.864 11.1973.97.1654v.9924h-4.935v-.9924l1.255-.1654-.653-2.1502h-4.333l-.652 2.1667 1.355.1489v.9924h-4.266l-.017-.9924 1.004-.1654 3.848-11.1973Zm1.154 2.7952-.301-1.2901-.318 1.3066-1.489 5.0777h3.681l-1.573-5.0942Zm13.487 9.7418c-1.227 0-2.286-.2646-3.179-.7939-.881-.5403-1.55-1.279-2.007-2.2163-.457-.9372-.686-1.9958-.686-3.1756 0-1.3563.262-2.5196.786-3.4899.535-.9703 1.288-1.7035 2.259-2.1997.97-.4962 2.102-.7443 3.396-.7443 1.216 0 2.582.1709 4.099.5127l-.184 3.0764h-1.69l-.452-2.1171c-.111-.1103-.323-.2095-.635-.2977-.313-.0992-.72-.1488-1.222-.1488-1.093 0-1.952.441-2.576 1.3231-.625.8711-.937 2.1336-.937 3.7876 0 1.6208.268 2.933.803 3.9364.535.9924 1.35 1.4886 2.443 1.4886.446 0 .864-.0551 1.254-.1654.391-.1103.686-.2536.887-.4301v-3.556l-1.773-.1654v-1.1081h5.085v1.1081l-.886.1489v4.383c-.234.011-.658.1047-1.272.2812-.714.1874-1.327.3253-1.84.4134-.502.0993-1.06.1489-1.673.1489Zm8.97-11.2304-1.339-.215v-1.0254h8.917l.218 2.7786h-1.171l-.552-1.6374-3.614-.1489v4.4492l2.325-.0496.268-1.3563h1.071v4.0026h-1.071l-.268-1.4224-2.325-.0496v4.6641l4.049-.1985.97-2.117 1.255.3473-.435 3.0268h-9.62v-.9924l1.322-.1654v-9.8907Zm11.983 0-1.322-.215v-1.0254h3.798l4.986 7.4428.937 1.8855v-8.0879l-1.439-.215v-1.0254h4.149v1.0254l-1.288.215v11.0485h-2.025l-5.203-7.8233-1.171-2.1832v8.8487l1.69.1654v.9924h-4.434v-.9924l1.322-.1654v-9.8907Z" fill="#F7F9FB"/>
  <path d="M43.8044 11.8015 24.2916 5.9573l-19.512 5.8442v15.316c-.0682 3.9634 3.7186 14.4294 19.4102 24.5863 15.3648-9.6735 19.4785-20.4214 19.6146-24.5863v-15.316Z" stroke="#F7F9FB" stroke-width="1.5"/>
  <path fill-rule="evenodd" clip-rule="evenodd" d="M41.8133 13.2193 24.2915 7.9292l-17.521 5.2901v10.8789H21.945l-1.5493-3.1377c-1.318.3831-2.7662-.2164-3.3852-1.4725-.6956-1.3943-.0712-3.1214 1.3567-3.8211 1.4478-.7106 3.1808-.1119 3.8764 1.2823.6629 1.3351.2138 2.864-.987 3.6457l1.6286 3.5033h2.4489l1.6913-3.5328c-1.191-.7908-1.6186-2.3567-.9366-3.6526.6062-1.152 1.9563-1.758 3.2184-1.494.5229.1009.9501.3566 1.2976.6557.5263-.5946 1.768-1.6299 3.8869-1.8321.01-.0054.0177-.0032.0254-.0009.0077.0022.0155.0044.0254-.001.3158.008.5797.2498.5605.5428-.01.2624-.2253.4823-.4992.5029-2.0174.1983-3.023 1.285-3.2941 1.638.3761.7717.3917 1.6881-.0142 2.4999-.6531 1.2544-2.0849 1.8536-3.4016 1.4909l-1.6161 3.1832h15.5355V13.2193ZM21.3162 30.0137 17.259 40.9341c-.0738.1944.0068.433.214.5261l1.5974.7749c.2599.1412.5608.0292.7034-.2283.1426-.2575.0182-.5754-.2308-.6969l-1.5975-.7749.2453-.4932 1.5975.7752c.2599.1412.5609.0288.7034-.2284.1426-.2575.0182-.5753-.2308-.6968l-1.5974-.7751.2453-.4932 1.5975.7752c.2599.1412.5607.0289.7033-.2285.1426-.2574.0182-.5751-.2307-.6966l-1.5975-.7752.2453-.4931 1.6085.7949c.2599.1412.5607.0289.7034-.2286.1425-.2574.0182-.5751-.2308-.6965l-1.6085-.795.2453-.4931 1.6284.7841c.2599.1412.5609.0288.7034-.2286.1426-.2574.0182-.5751-.2308-.6965l-1.6283-.7841.2452-.4932 1.6284.7841c.26.1412.5609.0289.7034-.2285.1426-.2574.0183-.5752-.2308-.6966l-1.6283-.7841.2453-.4931 1.6393.8038c.2599.1412.5608.0289.7035-.2285.1424-.2574.0181-.5751-.2309-.6966l-1.6392-.8038 1.0213-2.0117h1.5804l5.5363 11.3033a.2044.2044 0 0 0 .2779.0801c.0997-.054.1465-.1566.1118-.2662l-3.9583-11.1172h14.4432c-1.4296 4.7018-5.944 12.3236-16.9743 19.324-11.1729-7.2903-15.6817-14.7561-17.0394-19.324h14.0641Zm5.5524-12.6773c.5106-.9971 1.736-1.4069 2.7319-.921.9959.4858 1.3987 1.6797.9082 2.666-.5105.9971-1.736 1.4069-2.7319.921-1.0159-.475-1.4187-1.6689-.9082-2.666Zm-9.037 1.8077c-.4967-.9887-.0647-2.1743.9536-2.6769 1.0183-.5027 2.2354-.0858 2.7121.9137.4965.9888.0646 2.1744-.9537 2.677-1.0093.472-2.2155.0749-2.712-.9138Z" fill="#F7F9FB"/>
  <path d="m8.6734 25.9796-.3107-.047v-.2243h.8928l1.1721 1.6281.2203.4124v-1.7692l-.3383-.047v-.2243h.9755v.2243l-.3029.047v2.4169h-.4759l-1.2232-1.7114-.2754-.4776v1.9357l.3973.0362v.2171H8.3627v-.2171l.3107-.0362v-2.1636Zm4.2037 2.4458c-.3986 0-.6949-.0917-.8889-.275-.1941-.1833-.2911-.4715-.2911-.8647v-1.3061l-.2596-.047v-.2243h1.1878v.2243l-.3343.0506v1.3495c0 .5741.2216.8611.6647.8611.2177 0 .379-.0735.4838-.2207.1049-.1495.1574-.3582.1574-.6259v-1.364l-.3383-.0506v-.2243h.9833v.2243l-.2675.047v1.3387c0 .3763-.0996.6548-.2989.8357-.1966.1809-.4628.2714-.7984.2714Zm1.8729-2.4458-.3147-.047v-.2243h2.0965l.0511.6078h-.2753l-.1298-.3582-.8496-.0326v.9733l.5467-.0109.0629-.2967h.2518v.8756h-.2518l-.0629-.3111-.5467-.0109v1.0203l.9518-.0434.2282-.4631.295.0759-.1023.6622h-2.2616v-.2171l.3107-.0362v-2.1636Zm2.0424-.2713h1.1958v.2243l-.3343.047.586 1.6209.1141.3654.0983-.369.5507-1.6173-.3108-.047v-.2243h.9519v.2243l-.2517.047-.9047 2.4422h-.4681l-.9911-2.4422-.2361-.047v-.2243Zm3.845-.0145h.6018l.9086 2.4494.2281.0362v.2171h-1.1603v-.2171l.295-.0362-.1534-.4704h-1.0187l-.1535.474.3187.0326v.2171h-1.003l-.004-.2171.236-.0362.9047-2.4494Zm.2714.6114-.0708-.2822-.0747.2858-.3501 1.1108h.8653l-.3697-1.1144Zm2.8652-.3256-.3343-.047v-.2243h1.2586v.2243l-.3461.047v2.1636l.3461.0398v.2135h-1.2586v-.2171l.3343-.0362v-2.1636Zm1.7312 0-.4248-.047v-.2243h1.2272l.4681 1.5557.1101.4233.0944-.4233.4641-1.5557h1.2154v.2243l-.4287.047.3146 2.16.3187.0398v.2171h-1.2548v-.2171l.3462-.0362-.1731-1.5847-.0747-.6621-.1456.5572-.5703 1.8307h-.4169l-.5822-1.7367-.2006-.6512-.059.6621-.1494 1.5847.3972.0362v.2171h-1.0935v-.2171l.3305-.0362.2871-2.1636Zm4.4431-.2858h.6018l.9086 2.4494.2281.0362v.2171h-1.1603v-.2171l.295-.0362-.1534-.4704h-1.0187l-.1534.474.3185.0326v.2171h-1.003l-.0039-.2171.236-.0362.9047-2.4494Zm.2714.6114-.0708-.2822-.0748.2858-.35 1.1108h.8653l-.3697-1.1144Zm2.9348 2.131c-.2884 0-.5375-.0579-.7473-.1736-.2072-.1182-.3645-.2798-.472-.4848-.1075-.2051-.1613-.4366-.1613-.6947 0-.2967.0617-.5511.1849-.7634.1259-.2123.3029-.3727.531-.4812.2281-.1086.4943-.1628.7985-.1628.2858 0 .607.0374.9636.1121l-.0432.673h-.3973l-.1062-.4631c-.0262-.0242-.076-.0458-.1494-.0651-.0735-.0218-.1692-.0326-.2872-.0326-.257 0-.4589.0965-.6057.2895-.1469.1905-.2203.4667-.2203.8285 0 .3546.0629.6416.1888.8611.1259.217.3173.3256.5743.3256a1.158 1.158 0 0 0 .295-.0362c.0917-.0241.1612-.0555.2085-.094v-.7779l-.417-.0362v-.2424h1.1957v.2424l-.2084.0325v.9588c-.0551.0024-.1547.0229-.299.0615-.1678.041-.312.0712-.4326.0905-.118.0217-.2491.0325-.3934.0325Zm1.8728-2.4566-.3146-.047v-.2243h2.0965l.0511.6078h-.2753l-.1299-.3582-.8495-.0326v.9733l.5467-.0109.0629-.2967h.2518v.8756h-.2518l-.0629-.3111-.5467-.0109v1.0203l.9518-.0434.2281-.4631.295.0759-.1022.6622h-2.2617v-.2171l.3107-.0362v-2.1636Zm2.5814 0-.3107-.047v-.2243h.8929l1.1721 1.6281.2202.4124v-1.7692l-.3382-.047v-.2243h.9754v.2243l-.303.047v2.4169h-.4758l-1.2232-1.7114-.2754-.4776v1.9357l.3973.0362v.2171H37.298v-.2171l.3107-.0362v-2.1636Z" fill="#F7F9FB"/>
</svg>
