<svg width="24" height="25" fill="none" xmlns="http://www.w3.org/2000/svg">
  <mask id="a" style="mask-type:alpha" maskUnits="userSpaceOnUse" x="0" y="0" width="24" height="25">
    <path fill="#D9D9D9" d="M0 .5h24v24H0z"/>
  </mask>
  <g mask="url(#a)">
    <path d="M14.8 17.25c-.5 0-.93-.18-1.28-.52a1.74 1.74 0 0 1-.52-1.29v-.69h1.5v.7c0 .08.03.16.09.21a.3.3 0 0 0 .22.09h2.88a.3.3 0 0 0 .22-.09.3.3 0 0 0 .09-.22v-1.88a.3.3 0 0 0-.09-.22.3.3 0 0 0-.22-.09h-2.88c-.5 0-.94-.18-1.29-.53a1.74 1.74 0 0 1-.52-1.28V9.56c0-.5.18-.94.53-1.29.35-.34.77-.52 1.28-.52h2.88c.5 0 .93.17 1.29.53.34.35.52.77.52 1.28v.69H18v-.7a.3.3 0 0 0-.09-.21.3.3 0 0 0-.22-.09h-2.88a.3.3 0 0 0-.22.09.3.3 0 0 0-.09.22v1.88c0 .1.03.17.09.22a.3.3 0 0 0 .22.09h2.88c.5 0 .93.18 1.29.53.34.35.52.77.52 1.28v1.88c0 .5-.18.94-.52 1.29-.36.34-.78.52-1.29.52h-2.88ZM4.5 7.75H11v1.5H6v2.5h4v1.5H6v2.5h5v1.5H4.5v-9.5Z" fill="#1C1B1F"/>
  </g>
</svg>
