<svg width="41" height="41" fill="none" xmlns="http://www.w3.org/2000/svg">
  <rect x=".5" y=".33" width="40" height="40" rx="20" fill="url(#a)"/>
  <path d="M20.5 12.14h4.1c.96 0 1.44.24 1.8.36.49.24.85.36 1.2.72.37.36.61.72.73 1.2.12.37.24.85.36 1.81v8.2c0 .96-.24 1.44-.36 1.8-.24.49-.36.85-.72 1.2-.36.37-.72.61-1.2.73-.37.12-.85.24-1.81.36h-8.2c-.96 0-1.44-.24-1.8-.36-.49-.24-.85-.36-1.2-.72a2.5 2.5 0 0 1-.73-1.2 9.05 9.05 0 0 1-.36-1.81v-8.2c0-.96.24-1.44.36-1.8.24-.48.36-.85.72-1.2.36-.37.72-.61 1.2-.73.37-.12.85-.24 1.81-.36h4.1Zm0-1.8h-4.1a6.05 6.05 0 0 0-4.21 1.68c-.6.6-.85 1.08-1.2 1.8-.25.6-.37 1.33-.49 2.41v8.2a6.05 6.05 0 0 0 1.69 4.21c.6.6 1.08.85 1.8 1.2.6.25 1.33.37 2.41.5h8.2a6.05 6.05 0 0 0 4.21-1.7c.6-.6.85-1.08 1.2-1.8.25-.6.37-1.33.49-2.41v-8.2a6.05 6.05 0 0 0-1.69-4.21c-.6-.6-1.08-.85-1.8-1.2a9.32 9.32 0 0 0-2.41-.49h-4.1Z" fill="#fff"/>
  <path d="M20.5 15.15a5.14 5.14 0 0 0-5.18 5.18c0 2.9 2.29 5.18 5.18 5.18 2.9 0 5.18-2.29 5.18-5.18 0-2.9-2.29-5.18-5.18-5.18Zm0 8.55a3.37 3.37 0 1 1 0-6.74c1.8 0 3.37 1.44 3.37 3.37 0 1.8-1.56 3.37-3.37 3.37ZM25.8 16.23a1.2 1.2 0 1 0 0-2.4 1.2 1.2 0 0 0 0 2.4Z" fill="#fff"/>
  <defs>
    <radialGradient id="a" cx="0" cy="0" r="1" gradientUnits="userSpaceOnUse" gradientTransform="translate(41.3 1.14) scale(92.3719)">
      <stop stop-color="#F9ED32"/>
      <stop offset=".36" stop-color="#EE2A7B"/>
      <stop offset=".44" stop-color="#D22A8A"/>
      <stop offset=".6" stop-color="#8B2AB2"/>
      <stop offset=".83" stop-color="#1B2AF0"/>
      <stop offset=".88" stop-color="#002AFF"/>
    </radialGradient>
  </defs>
</svg>
