<svg width="21" height="21" fill="none" xmlns="http://www.w3.org/2000/svg"  preserveAspectRatio="xMidYMid meet">
  <mask id="a" style="mask-type:alpha" maskUnits="userSpaceOnUse" x="0" y="0" width="21" height="21">
    <path fill="#D9D9D9" d="M.5.33h20v20H.5z"/>
  </mask>
  <g mask="url(#a)">
    <path d="M4.56 17.31a.97.97 0 0 1-.77-.26.96.96 0 0 1-.33-.74v-2.83c0-.24.07-.44.2-.62.15-.17.33-.3.57-.36l2.23-.48c.18-.03.35-.02.52.03.17.05.3.13.42.24l2.06 2a11.15 11.15 0 0 0 2.83-2.1 11.28 11.28 0 0 0 2.17-2.9l-2.02-2.04a.96.96 0 0 1-.24-.42 1.2 1.2 0 0 1-.03-.52l.5-2.2c.05-.23.17-.41.34-.56a.93.93 0 0 1 .62-.22h2.83c.3 0 .54.1.74.32.2.22.29.47.26.76a13.83 13.83 0 0 1-4.06 8.81 14.12 14.12 0 0 1-4.06 2.85c-1.5.7-3.1 1.11-4.78 1.24Zm10.59-9.48a11.67 11.67 0 0 0 .77-3h-1.88l-.35 1.54 1.46 1.46ZM7.98 15l-1.46-1.46-1.56.33v1.88c.51-.07 1.02-.17 1.53-.28.5-.12 1-.28 1.49-.47Z" fill="#F3F3F3"/>
  </g>
</svg>
